Coordinates
version=1
nRows=17
nColumns=33
inDegrees=yes

Units are S.I. units (second, meters, Newtons, ...)
Angles are in degrees.

endheader
time	ground_thorax_rot_x	ground_thorax_rot_y	ground_thorax_rot_z	ground_thorax_tx	ground_thorax_ty	ground_thorax_tz	clav_prot_r	clav_elev_r	scapula_abduction_r	scapula_elevation_r	scapula_upward_rot_r	scapula_winging_r	shoulder_elv_r	plane_of_elev_r	axial_rot_r	elbow_flexion_r	pro_sup_r	wrist_flex_r	wrist_dev_r	clav_prot_l	clav_elev_l	scapula_abduction_l	scapula_elevation_l	scapula_upward_rot_l	scapula_winging_l	shoulder_elv_l	plane_of_elev_l	axial_rot_l	elbow_flexion_l	pro_sup_l	wrist_flex_l	wrist_dev_l	
5.1800	38.865847	2.066463	5.304057	-57.290960	790.472323	-2.933439	15.752287	42.899228	45.000000	44.490735	-22.918557	-1878.173530	-4614.207465	29.149352	180.000000	359.205465	177.076738	14.511536	11.207692	5.942048	-45.000000	-45.000000	45.000000	-8.949452	1164.270073	-3171.107568	17.852524	-51.636680	-343.617126	-165.436365	-5.767134	-7.653434	
5.1900	38.918464	2.025540	5.078701	-58.401868	790.747238	-3.034289	15.650103	42.923125	45.000000	44.557870	-22.841820	-1878.292044	-4614.154057	29.169880	180.000000	359.123353	176.743070	14.504056	11.192978	5.805300	-45.000000	-45.000000	45.000000	-8.654174	1164.478896	-3171.061536	18.149652	-50.267287	-343.701086	-169.281965	-5.498313	-8.065072	
5.2000	38.973978	1.989937	4.859284	-59.584101	791.028700	-3.135053	15.559589	42.930679	45.000000	44.631008	-22.804983	-1878.409982	-4614.081999	29.203890	180.000000	359.029786	176.365080	14.473952	11.157161	5.682353	-45.000000	-45.000000	45.000000	-8.402246	1164.692368	-3171.022518	18.603606	-48.030761	-344.033774	-175.382211	-4.957021	-8.667998	
5.2100	39.028130	2.015536	4.720278	-60.920756	791.321001	-3.236997	15.510772	42.938660	45.000000	44.711089	-22.893548	-1878.528394	-4613.979150	29.224456	180.000000	358.911432	175.925089	14.492726	11.155249	5.606812	-45.000000	-45.000000	45.000000	-8.259422	1164.920373	-3170.989237	19.220671	-44.649692	-344.676986	-184.471950	-4.076734	-9.511392	
5.2200	39.078101	2.100537	4.658599	-62.424340	791.630337	-3.338397	15.509808	42.943360	45.000000	44.791890	-23.123042	-1878.639246	-4613.832387	29.237083	180.000000	358.764348	175.342238	14.530570	11.169086	5.588633	-45.000000	-45.000000	45.000000	-8.255914	1165.155167	-3170.974457	20.341861	-38.089136	-346.226819	-201.804654	-2.229057	-11.024173	
5.2300	39.123224	2.223406	4.653263	-64.119492	791.964600	-3.437578	15.530648	42.943090	45.000000	44.867265	-23.442631	-1878.760061	-4613.655060	29.244406	180.000000	358.589835	174.664508	14.586054	11.199382	5.606837	-45.000000	-45.000000	45.000000	-8.355614	1165.405729	-3170.979050	21.846860	-29.110333	-348.481864	-225.525118	0.380476	-13.056613	
5.2400	39.157078	2.374071	4.693913	-66.012540	792.332743	-3.532053	15.563439	42.952069	45.000000	44.926701	-23.813871	-1878.895020	-4613.457416	29.239252	180.000000	358.396316	173.932254	14.655359	11.239666	5.653198	-45.000000	-45.000000	45.000000	-8.535585	1165.671153	-3170.990126	23.621163	-18.410214	-351.267308	-253.941007	3.560688	-15.468086	
5.2500	39.180921	2.517583	4.741807	-68.101841	792.744299	-3.619142	15.572064	42.957944	45.000000	44.969435	-24.145447	-1879.068382	-4613.271376	29.226587	180.000000	358.196944	173.270340	14.735340	11.281779	5.693334	-45.000000	-45.000000	45.000000	-8.717385	1165.964521	-3170.992808	25.205233	-8.858411	-353.777569	-279.773203	6.464414	-17.669914	
5.2600	39.188483	2.666635	4.814180	-70.385607	793.208347	-3.696384	15.573153	42.970925	44.999999	44.991665	-24.454644	-1879.271084	-4613.095438	29.197964	180.000000	357.998401	172.677847	14.830908	11.324102	5.740523	-45.000000	-44.999999	45.000000	-8.915561	1166.281710	-3170.969712	26.543776	-0.758053	-355.934567	-302.231351	8.993018	-19.590025	
5.2700	39.183223	2.800947	4.890755	-72.861477	793.733407	-3.761596	15.545459	42.976908	44.999998	45.000000	-24.697417	-1879.516548	-4612.948862	29.162865	180.000000	357.808783	172.225739	14.942963	11.365404	5.772590	-45.000000	-44.999998	45.000000	-9.080210	1166.634279	-3170.909258	27.302292	3.800611	-357.136813	-315.906660	10.510194	-20.788528	
5.2800	39.164749	2.939128	4.992082	-75.526273	794.326844	-3.812777	15.518027	42.986257	44.999997	45.000000	-24.924058	-1879.784648	-4612.815884	29.118036	179.999999	357.630623	171.856657	15.068900	11.401250	5.811403	-45.000000	-44.999997	45.000000	-9.250443	1167.011395	-3170.801250	27.581847	5.458301	-357.560402	-322.323006	11.182981	-21.381238	
5.2900	39.136655	3.080618	5.116525	-78.376117	794.994917	-3.848076	15.491625	42.980140	44.999995	45.000000	-25.150163	-1880.074961	-4612.695498	29.073741	179.999999	357.462687	171.523534	15.204610	11.435198	5.857404	-45.000000	-44.999995	45.000000	-9.431458	1167.414214	-3170.655788	27.473937	4.757179	-357.341313	-322.751130	11.156486	-21.472254	
5.3000	39.097398	3.243761	5.282116	-81.406675	795.742392	-3.865746	15.493607	42.965590	44.999991	45.000000	-25.437332	-1880.367128	-4612.564546	29.028878	179.999998	357.299307	171.107794	15.342150	11.467552	5.933972	-45.000000	-44.999991	45.000000	-9.678185	1167.828373	-3170.484265	27.365092	4.081319	-357.151061	-323.209689	11.133304	-21.546731	
5.3100	39.048433	3.412939	5.468395	-84.612843	796.572394	-3.864237	15.502915	42.932797	44.999984	45.000000	-25.756545	-1880.670523	-4612.433869	28.989285	179.999997	357.140396	170.607962	15.480463	11.505146	6.023403	-45.000000	-44.999984	45.000000	-9.961079	1168.257886	-3170.299398	27.257270	3.427940	-356.979323	-323.685695	11.116421	-21.609371	
5.3200	38.991309	3.585708	5.666786	-87.988296	797.485841	-3.842297	15.521227	42.889230	44.999971	45.000000	-26.101745	-1880.981905	-4612.303119	28.950318	179.999995	356.988316	170.023178	15.617666	11.545957	6.125229	-45.000000	-44.999972	45.000000	-10.278992	1168.696147	-3170.102225	27.147036	2.778053	-356.818777	-324.171261	11.102190	-21.662076	
5.3300	38.927278	3.755694	5.868267	-91.523933	798.481035	-3.799151	15.537412	42.821998	44.999948	45.000000	-26.457804	-1881.306227	-4612.181325	28.913249	179.999992	356.842966	169.358367	15.753495	11.592626	6.233302	-45.000000	-44.999950	45.000000	-10.618525	1169.146258	-3169.902143	27.030865	2.110192	-356.655758	-324.660927	11.089469	-21.712239	
5.3400	38.858316	3.920715	6.067944	-95.207506	799.553519	-3.734659	15.550863	42.736344	44.999906	45.000000	-26.820825	-1881.640356	-4612.067309	28.876163	179.999986	356.705497	168.621669	15.886360	11.644443	6.346150	-45.000000	-44.999911	45.000000	-10.977314	1169.604564	-3169.700383	26.906319	1.407498	-356.484340	-325.153967	11.074244	-21.761208	
